<?xml version="1.0" standalone="no"?>
<!DOCTYPE svg PUBLIC "-//W3C//DTD SVG 20010904//EN"
 "http://www.w3.org/TR/2001/REC-SVG-20010904/DTD/svg10.dtd">
<svg version="1.0" xmlns="http://www.w3.org/2000/svg"
 width="1920.000000pt" height="1920.000000pt" viewBox="0 0 1920.000000 1920.000000"
 preserveAspectRatio="xMidYMid meet">

<g transform="translate(0.000000,1920.000000) scale(0.100000,-0.100000)"
fill="#000000" stroke="none">
<path d="M3037 17579 c-94 -22 -191 -108 -221 -196 -15 -42 -16 -734 -16
-7783 0 -7078 1 -7740 16 -7784 22 -64 100 -147 166 -177 l53 -24 6565 0 6565
0 53 24 c67 30 145 114 166 179 15 43 16 607 14 6247 l-3 6200 -30 54 c-27 49
-220 216 -1873 1615 -1014 859 -1864 1576 -1888 1593 -96 69 339 63 -4838 62
-2691 -1 -4707 -5 -4729 -10z m9083 -2037 c0 -1604 -6 -1480 76 -1571 25 -27
66 -60 92 -73 l47 -23 1725 -5 1725 -5 3 -5817 2 -5818 -6190 0 -6190 0 0
7370 0 7370 4355 0 4355 0 0 -1428z m1870 10 c679 -575 1242 -1051 1250 -1058
12 -12 -176 -14 -1248 -14 l-1262 0 0 1066 c0 849 3 1064 13 1058 6 -5 568
-478 1247 -1052z"/>
<path d="M7636 16519 c-302 -29 -581 -158 -799 -368 -120 -116 -206 -232 -277
-376 -152 -307 -181 -646 -85 -980 27 -94 101 -257 152 -335 l29 -45 -129 -42
c-274 -90 -491 -227 -703 -444 -198 -205 -341 -428 -449 -704 -88 -224 -154
-540 -157 -754 -2 -84 1 -103 23 -151 37 -79 71 -115 147 -152 l67 -33 2310 0
2310 0 67 33 c73 36 115 80 149 158 24 54 27 160 9 311 -60 505 -265 952 -589
1286 -215 221 -434 361 -706 449 l-131 42 47 78 c234 389 251 886 43 1295 -67
132 -128 216 -237 329 -177 185 -405 314 -652 372 -78 19 -291 44 -335 41 -8
-1 -55 -6 -104 -10z m272 -625 c233 -48 424 -201 522 -418 43 -95 62 -186 61
-301 0 -200 -68 -362 -211 -506 -94 -95 -175 -146 -298 -187 -68 -23 -93 -26
-217 -26 -124 0 -149 3 -217 26 -122 41 -204 92 -299 187 -144 145 -211 307
-211 511 0 75 6 128 21 183 99 374 475 608 849 531z m867 -2092 c100 -29 203
-77 295 -136 93 -60 251 -214 323 -315 103 -143 195 -338 242 -513 l24 -88
-1895 0 -1894 0 6 28 c4 15 23 79 44 142 151 464 490 808 880 891 79 17 150
18 990 16 l905 -2 80 -23z"/>
<path d="M4387 10626 c-206 -74 -270 -343 -119 -499 20 -21 60 -51 87 -65 l50
-27 3370 0 3370 0 47 23 c60 30 120 89 149 150 19 37 23 64 24 127 0 130 -53
218 -167 275 l-61 30 -3356 0 c-2799 -1 -3362 -3 -3394 -14z"/>
<path d="M4415 8531 c-128 -32 -227 -155 -229 -286 -2 -131 55 -227 168 -285
l69 -35 5176 0 5176 0 67 33 c114 56 172 147 172 272 0 122 -60 221 -168 278
l-51 27 -5175 1 c-2846 1 -5188 -1 -5205 -5z"/>
<path d="M4432 6429 c-145 -28 -246 -153 -246 -304 0 -120 63 -218 172 -272
l57 -28 5185 0 5185 0 52 24 c62 27 126 94 156 159 29 65 29 179 -2 242 -35
74 -77 117 -149 152 l-67 33 -5150 1 c-2832 1 -5169 -2 -5193 -7z"/>
<path d="M4388 4314 c-64 -20 -149 -99 -179 -166 -68 -156 12 -350 169 -408
53 -20 76 -20 5240 -18 l5187 3 40 21 c145 79 210 256 146 402 -32 70 -115
146 -183 167 -46 13 -620 15 -5212 14 -4463 0 -5167 -2 -5208 -15z"/>
</g>
</svg>
